# xmcd
#
# Track frame offsets: 
#        183
#        13850
#        18570
#        33075
#        44125
#        55540
#        66750
#        75100
#        82725
#        94688
#
# Disc length: 1379 seconds
#
# Revision: 3
# Processed by: cddbd v1.5.2PL0 Copyright (c) Steve Scherf et al.
# Submitted via: ExactAudioCopy v0.99pb5
#
DISCID=6805610a
DTITLE=Fats Domino - Legends in Music
DYEAR=1900
DGENRE=
TTITLE0=Blueberry Hill
TTITLE1=Whole Lotta Lovin'
TTITLE2=I'm In Lve Again
TTITLE3=Blue Monday
TTITLE4=I Want To Walk You Home
TTITLE5=Ain't That A Shame
TTITLE6=Be My Guest
TTITLE7=My Girl Josephine
TTITLE8=Let The Four Winds Blow
TTITLE9=I'm Ready
EXTD=
EXTT0=
EXTT1=
EXTT2=
EXTT3=
EXTT4=
EXTT5=
EXTT6=
EXTT7=
EXTT8=
EXTT9=
PLAYORDER=
